<?xml version="1.0" encoding="UTF-8"?>
<!DOCTYPE svg PUBLIC "-//W3C//DTD SVG 1.1//EN" "http://www.w3.org/Graphics/SVG/1.1/DTD/svg11.dtd">
<svg xmlns="http://www.w3.org/2000/svg" version="1.1" width="1563px" height="1563px" style="shape-rendering:geometricPrecision; text-rendering:geometricPrecision; image-rendering:optimizeQuality; fill-rule:evenodd; clip-rule:evenodd" xmlns:xlink="http://www.w3.org/1999/xlink">
<g><path style="opacity:0.971" fill="#101010" d="M 363.5,123.5 C 376.167,123.5 388.833,123.5 401.5,123.5C 401.5,126.5 401.5,129.5 401.5,132.5C 391.833,132.5 382.167,132.5 372.5,132.5C 372.5,140.167 372.5,147.833 372.5,155.5C 381.167,155.5 389.833,155.5 398.5,155.5C 398.5,158.167 398.5,160.833 398.5,163.5C 389.833,163.5 381.167,163.5 372.5,163.5C 372.5,171.5 372.5,179.5 372.5,187.5C 382.167,187.5 391.833,187.5 401.5,187.5C 401.5,190.167 401.5,192.833 401.5,195.5C 388.833,195.5 376.167,195.5 363.5,195.5C 363.5,171.5 363.5,147.5 363.5,123.5 Z"/></g>
<g><path style="opacity:0.984" fill="#000000" d="M 531.5,131.5 C 524.833,131.5 518.167,131.5 511.5,131.5C 511.5,152.833 511.5,174.167 511.5,195.5C 508.833,195.5 506.167,195.5 503.5,195.5C 503.5,174.167 503.5,152.833 503.5,131.5C 496.833,131.5 490.167,131.5 483.5,131.5C 483.5,129.167 483.5,126.833 483.5,124.5C 499.5,124.5 515.5,124.5 531.5,124.5C 531.5,126.833 531.5,129.167 531.5,131.5 Z"/></g>
<g><path style="opacity:0.993" fill="#0a0a0a" d="M 615.5,124.5 C 627.833,124.5 640.167,124.5 652.5,124.5C 652.5,126.833 652.5,129.167 652.5,131.5C 642.833,131.5 633.167,131.5 623.5,131.5C 623.174,139.684 623.508,147.684 624.5,155.5C 632.65,156.493 640.983,156.826 649.5,156.5C 649.5,158.5 649.5,160.5 649.5,162.5C 640.983,162.174 632.65,162.507 624.5,163.5C 624.5,171.5 624.5,179.5 624.5,187.5C 633.652,188.494 642.985,188.827 652.5,188.5C 652.5,190.833 652.5,193.167 652.5,195.5C 639.833,195.5 627.167,195.5 614.5,195.5C 614.169,171.661 614.502,147.994 615.5,124.5 Z"/></g>
<g><path style="opacity:0.967" fill="#0e0e0e" d="M 739.5,124.5 C 751.229,124.088 762.896,124.588 774.5,126C 787.885,134.039 790.718,144.872 783,158.5C 779.579,162.257 775.412,164.757 770.5,166C 776.544,175.252 782.211,184.752 787.5,194.5C 783.878,195.659 780.211,195.825 776.5,195C 771.085,185.5 765.418,176.167 759.5,167C 755.848,166.501 752.182,166.335 748.5,166.5C 748.5,176.167 748.5,185.833 748.5,195.5C 745.5,195.5 742.5,195.5 739.5,195.5C 739.5,171.833 739.5,148.167 739.5,124.5 Z M 748.5,132.5 C 756.253,132.104 763.92,132.604 771.5,134C 777.533,139.63 778.699,146.13 775,153.5C 773.786,155.049 772.286,156.215 770.5,157C 763.254,158.391 755.921,158.891 748.5,158.5C 748.5,149.833 748.5,141.167 748.5,132.5 Z"/></g>
<g><path style="opacity:0.975" fill="#090909" d="M 918.5,178.5 C 918.783,179.289 919.283,179.956 920,180.5C 920.5,161.836 920.667,143.17 920.5,124.5C 923.167,124.5 925.833,124.5 928.5,124.5C 928.5,148.167 928.5,171.833 928.5,195.5C 925.223,195.784 922.057,195.451 919,194.5C 907,176.5 895,158.5 883,140.5C 882.5,158.83 882.333,177.164 882.5,195.5C 879.5,195.5 876.5,195.5 873.5,195.5C 873.5,171.5 873.5,147.5 873.5,123.5C 876.518,123.335 879.518,123.502 882.5,124C 894.883,141.938 906.883,160.105 918.5,178.5 Z"/></g>
<g><path style="opacity:0.251" fill="#8d8d8d" d="M 920.5,124.5 C 920.667,143.17 920.5,161.836 920,180.5C 919.283,179.956 918.783,179.289 918.5,178.5C 919.167,160.5 919.833,142.5 920.5,124.5 Z"/></g>
<g><path style="opacity:0.631" fill="#393939" d="M 920.5,124.5 C 923.287,123.523 926.287,123.19 929.5,123.5C 929.831,147.672 929.498,171.672 928.5,195.5C 928.5,171.833 928.5,148.167 928.5,124.5C 925.833,124.5 923.167,124.5 920.5,124.5 Z"/></g>
<g><path style="opacity:0.989" fill="#121212" d="M 1167.5,187.5 C 1175.32,188.492 1183.32,188.826 1191.5,188.5C 1191.5,190.833 1191.5,193.167 1191.5,195.5C 1180.17,195.5 1168.83,195.5 1157.5,195.5C 1157.5,171.833 1157.5,148.167 1157.5,124.5C 1160.83,124.5 1164.17,124.5 1167.5,124.5C 1167.5,145.5 1167.5,166.5 1167.5,187.5 Z"/></g>
<g><path style="opacity:0.977" fill="#111111" d="M 1037.5,124.5 C 1041.55,124.176 1045.55,124.509 1049.5,125.5C 1058.24,148.717 1066.57,172.05 1074.5,195.5C 1071.1,195.82 1067.77,195.487 1064.5,194.5C 1062.59,189.609 1060.59,184.776 1058.5,180C 1048.5,179.333 1038.5,179.333 1028.5,180C 1026.7,185.08 1024.7,190.08 1022.5,195C 1019.12,195.824 1015.78,195.657 1012.5,194.5C 1021.24,171.283 1029.57,147.95 1037.5,124.5 Z M 1055.5,170.5 C 1047.5,171.833 1039.5,171.833 1031.5,170.5C 1035.37,159.378 1039.54,148.378 1044,137.5C 1047.94,148.486 1051.77,159.486 1055.5,170.5 Z"/></g>
<g><path style="opacity:0.165" fill="#939393" d="M 615.5,124.5 C 627.989,123.505 640.656,123.171 653.5,123.5C 653.5,126.5 653.5,129.5 653.5,132.5C 643.833,132.5 634.167,132.5 624.5,132.5C 624.5,140.167 624.5,147.833 624.5,155.5C 623.508,147.684 623.174,139.684 623.5,131.5C 633.167,131.5 642.833,131.5 652.5,131.5C 652.5,129.167 652.5,126.833 652.5,124.5C 640.167,124.5 627.833,124.5 615.5,124.5 Z"/></g>
<g><path style="opacity:0.314" fill="#848484" d="M 483.5,131.5 C 490.167,131.5 496.833,131.5 503.5,131.5C 503.5,152.833 503.5,174.167 503.5,195.5C 502.503,174.673 502.169,153.673 502.5,132.5C 495.978,132.823 489.645,132.49 483.5,131.5 Z"/></g>
<g><path style="opacity:0.569" fill="#4e4e4e" d="M 531.5,131.5 C 525.355,132.49 519.022,132.823 512.5,132.5C 512.831,153.673 512.497,174.673 511.5,195.5C 511.5,174.167 511.5,152.833 511.5,131.5C 518.167,131.5 524.833,131.5 531.5,131.5 Z"/></g>
<g><path style="opacity:0.616" fill="#383838" d="M 624.5,155.5 C 633.167,155.5 641.833,155.5 650.5,155.5C 650.5,158.167 650.5,160.833 650.5,163.5C 641.833,163.5 633.167,163.5 624.5,163.5C 632.65,162.507 640.983,162.174 649.5,162.5C 649.5,160.5 649.5,158.5 649.5,156.5C 640.983,156.826 632.65,156.493 624.5,155.5 Z"/></g>
<g><path style="opacity:0.2" fill="#989898" d="M 1031.5,170.5 C 1039.5,171.833 1047.5,171.833 1055.5,170.5C 1056.04,170.56 1056.38,170.893 1056.5,171.5C 1047.83,172.833 1039.17,172.833 1030.5,171.5C 1030.62,170.893 1030.96,170.56 1031.5,170.5 Z"/></g>
<g><path style="opacity:0.447" fill="#5c5c5c" d="M 624.5,187.5 C 634.167,187.5 643.833,187.5 653.5,187.5C 653.806,190.385 653.473,193.052 652.5,195.5C 652.5,193.167 652.5,190.833 652.5,188.5C 642.985,188.827 633.652,188.494 624.5,187.5 Z"/></g>
<g><path style="opacity:0.361" fill="#737373" d="M 1167.5,187.5 C 1175.83,187.5 1184.17,187.5 1192.5,187.5C 1192.81,190.385 1192.47,193.052 1191.5,195.5C 1191.5,193.167 1191.5,190.833 1191.5,188.5C 1183.32,188.826 1175.32,188.492 1167.5,187.5 Z"/></g>
<g><path style="opacity:0.999" fill="#020202" d="M 359.5,856.5 C 358.833,736.5 358.167,616.5 357.5,496.5C 357.819,460.473 356.986,424.473 355,388.5C 354.503,373.01 350.837,358.343 344,344.5C 334.909,332.029 322.742,324.196 307.5,321C 286.077,316.588 264.411,314.588 242.5,315C 231.136,314.667 226.636,309.167 229,298.5C 234.173,293.774 240.34,291.607 247.5,292C 310.848,292.096 374.181,293.262 437.5,295.5C 496.487,293.398 555.487,292.232 614.5,292C 620.572,292.285 625.405,294.785 629,299.5C 630.92,307.164 628.087,311.997 620.5,314C 600.271,314.359 580.271,316.692 560.5,321C 542.493,326.341 531.327,338.174 527,356.5C 525.283,362.752 523.95,369.086 523,375.5C 521.535,394.14 520.535,412.807 520,431.5C 519.667,536.167 519.333,640.833 519,745.5C 467.637,785.098 414.471,822.098 359.5,856.5 Z"/></g>
<g><path style="opacity:0.999" fill="#030303" d="M 910.5,291.5 C 975.847,292.113 1041.18,293.446 1106.5,295.5C 1156.83,294.021 1207.16,292.688 1257.5,291.5C 1267.54,291.417 1277.54,291.917 1287.5,293C 1295.1,295.041 1297.94,299.874 1296,307.5C 1294.83,310 1293,311.833 1290.5,313C 1272.48,314.639 1254.48,316.639 1236.5,319C 1210.6,323.238 1195.76,338.405 1192,364.5C 1190.44,372.092 1189.44,379.759 1189,387.5C 1188.05,405.823 1187.38,424.156 1187,442.5C 1186.67,577.167 1186.33,711.833 1186,846.5C 1130.2,812.112 1076.53,774.778 1025,734.5C 1024.67,632.167 1024.33,529.833 1024,427.5C 1023.65,412.139 1022.82,396.806 1021.5,381.5C 1020.8,365.671 1015.97,351.338 1007,338.5C 1000.15,331.327 991.982,326.16 982.5,323C 959.269,316.758 935.602,314.091 911.5,315C 907.332,314.625 903.332,313.625 899.5,312C 895.286,307.8 894.452,302.966 897,297.5C 901.057,294.215 905.557,292.215 910.5,291.5 Z"/></g>
<g><path style="opacity:0.981" fill="#905f48" d="M 818.5,302.5 C 827.666,301.167 834.499,304.5 839,312.5C 846.361,334.03 842.528,353.53 827.5,371C 821.085,377.36 813.419,379.693 804.5,378C 797.81,374.47 793.643,368.97 792,361.5C 788.671,341.975 793.505,324.809 806.5,310C 810.428,307.21 814.428,304.71 818.5,302.5 Z"/></g>
<g><path style="opacity:0.982" fill="#905f48" d="M 722.5,308.5 C 729.473,307.536 735.807,309.036 741.5,313C 761.395,331.076 766.562,352.576 757,377.5C 748.577,386.727 739.077,387.894 728.5,381C 711.64,365.753 705.14,346.92 709,324.5C 710.96,316.85 715.46,311.517 722.5,308.5 Z"/></g>
<g><path style="opacity:0.983" fill="#905f48" d="M 885.5,363.5 C 901.023,361.407 909.357,368.073 910.5,383.5C 907.001,406.831 894.001,421.997 871.5,429C 852.851,429.27 845.351,420.104 849,401.5C 854.924,382.744 867.091,370.077 885.5,363.5 Z"/></g>
<g><path style="opacity:0.982" fill="#905f48" d="M 661.5,372.5 C 682.916,372.804 698.082,382.804 707,402.5C 713.284,426.109 704.451,435.609 680.5,431C 659.779,422.302 649.612,406.802 650,384.5C 652.019,378.65 655.852,374.65 661.5,372.5 Z"/></g>
<g><path style="opacity:0.99" fill="#8f5e47" d="M 778.5,393.5 C 788.25,393.027 796.584,396.193 803.5,403C 810.12,411.076 816.62,419.242 823,427.5C 830.04,434.264 837.54,440.431 845.5,446C 856.887,455.034 863.554,466.701 865.5,481C 864.977,493.163 859.31,501.83 848.5,507C 843.658,508.948 838.658,510.281 833.5,511C 807.155,511.069 780.822,511.902 754.5,513.5C 742.957,514.676 731.957,512.842 721.5,508C 711.692,500.953 707.025,491.286 707.5,479C 707.902,469.2 711.568,460.866 718.5,454C 726.09,448.287 733.59,442.454 741,436.5C 747.251,424.992 754.251,413.992 762,403.5C 766.726,398.728 772.226,395.394 778.5,393.5 Z"/></g>
<g><path style="opacity:0.998" fill="#020202" d="M 1366.5,987.5 C 1334,988.498 1301.34,988.832 1268.5,988.5C 1240.98,973.824 1213.82,958.49 1187,942.5C 1185.61,1011.56 1186.94,1080.56 1191,1149.5C 1191.86,1168.3 1195.19,1186.63 1201,1204.5C 1208.75,1222.81 1222.59,1232.97 1242.5,1235C 1267.74,1238.21 1293.08,1240.21 1318.5,1241C 1329.23,1244.14 1331.23,1250.14 1324.5,1259C 1321.05,1260.93 1317.39,1262.26 1313.5,1263C 1244.31,1263.47 1175.14,1262.31 1106,1259.5C 1047.18,1261.84 988.351,1263 929.5,1263C 924.262,1262.3 919.762,1260.13 916,1256.5C 913.033,1250.23 914.533,1245.39 920.5,1242C 935.103,1240.14 949.77,1238.8 964.5,1238C 976.123,1237.42 986.79,1234.09 996.5,1228C 1003.87,1219.76 1009.04,1210.26 1012,1199.5C 1015.3,1186.68 1017.64,1173.68 1019,1160.5C 1021,1139.54 1022.33,1118.54 1023,1097.5C 1024.68,1010.84 1025.35,924.174 1025,837.5C 937.418,775.458 855.251,706.458 778.5,630.5C 697.463,709.742 611.296,782.409 520,848.5C 518.892,938.183 519.559,1027.85 522,1117.5C 522.767,1137.24 524.434,1156.91 527,1176.5C 528.59,1189.94 532.59,1202.6 539,1214.5C 545.618,1223.78 554.451,1229.94 565.5,1233C 590.96,1237.48 616.627,1239.82 642.5,1240C 649.104,1239.65 654.938,1241.48 660,1245.5C 662.504,1250.65 661.671,1255.15 657.5,1259C 654.052,1260.93 650.385,1262.26 646.5,1263C 577.309,1263.47 508.142,1262.31 439,1259.5C 380.184,1261.84 321.351,1263 262.5,1263C 252.332,1262.51 247.499,1257.34 248,1247.5C 249.868,1243.48 253.035,1241.31 257.5,1241C 278.063,1240.58 298.397,1238.24 318.5,1234C 330.302,1229.28 338.136,1220.78 342,1208.5C 348.037,1188.95 351.703,1168.95 353,1148.5C 355.623,1109.21 357.123,1069.88 357.5,1030.5C 358.829,1005 358.829,979.33 357.5,953.5C 356.893,953.624 356.56,953.957 356.5,954.5C 336.328,966.087 315.995,977.42 295.5,988.5C 261.663,988.832 227.996,988.498 194.5,987.5C 384.678,893.442 556.345,773.276 709.5,627C 732.347,603.986 755.347,581.153 778.5,558.5C 880.301,666.274 992.634,760.774 1115.5,842C 1196.28,895.072 1279.95,943.572 1366.5,987.5 Z"/></g>
<g><path style="opacity:0.235" fill="#8e8e8e" d="M 357.5,496.5 C 358.167,616.5 358.833,736.5 359.5,856.5C 359.44,857.043 359.107,857.376 358.5,857.5C 357.5,737.169 357.167,616.835 357.5,496.5 Z"/></g>
<g><path style="opacity:0.976" fill="#131313" d="M 689.5,1033.5 C 688.833,1033.5 688.167,1033.5 687.5,1033.5C 685.983,1033.49 684.816,1032.82 684,1031.5C 683.667,1014.83 683.333,998.167 683,981.5C 681.221,977.388 678.388,974.222 674.5,972C 657.018,968.617 640.018,963.617 623.5,957C 604.506,949.005 590.339,935.839 581,917.5C 576.104,903.034 575.104,888.367 578,873.5C 581.48,863.18 588.647,857.846 599.5,857.5C 604.738,858.101 609.905,859.101 615,860.5C 620.857,859.831 626.691,858.998 632.5,858C 653.688,850.078 673.022,839.078 690.5,825C 702.454,818.303 715.287,815.137 729,815.5C 758.79,813.981 784.456,823.314 806,843.5C 817.233,857.172 824.233,872.838 827,890.5C 829.45,906.109 829.95,921.775 828.5,937.5C 828.15,962.613 835.316,985.279 850,1005.5C 865.955,1025.79 882.288,1045.79 899,1065.5C 931.71,1112.76 956.877,1163.92 974.5,1219C 972.445,1223.81 969.279,1224.64 965,1221.5C 947.324,1166.48 921.99,1115.48 889,1068.5C 868.76,1046.6 850.427,1023.27 834,998.5C 827.486,987.29 823.152,975.29 821,962.5C 819.762,943.867 819.096,925.2 819,906.5C 817.374,861.994 794.874,835.494 751.5,827C 735.658,824.438 719.991,825.105 704.5,829C 695.023,833.487 686.356,839.153 678.5,846C 667.313,853.096 655.646,859.429 643.5,865C 634.541,867.859 625.374,869.692 616,870.5C 612.08,870.049 608.247,869.216 604.5,868C 597.265,866.073 591.765,868.24 588,874.5C 581.305,904.596 591.138,927.43 617.5,943C 635.124,952.208 653.79,958.208 673.5,961C 683.774,964.273 690.274,971.106 693,981.5C 693.667,998.167 693.667,1014.83 693,1031.5C 692.184,1032.82 691.017,1033.49 689.5,1033.5 Z"/></g>
<g><path style="opacity:0.978" fill="#141414" d="M 743.5,845.5 C 746.281,846.446 748.281,848.279 749.5,851C 734.397,870.044 724.231,891.544 719,915.5C 714.954,945.62 728.12,960.62 758.5,960.5C 770.965,962.069 781.465,958.402 790,949.5C 801.34,925.792 804.34,901.126 799,875.5C 800.305,872.694 802.472,871.86 805.5,873C 807.538,874.236 808.705,876.069 809,878.5C 814.472,906.468 810.139,932.801 796,957.5C 785.542,967.415 773.042,971.748 758.5,970.5C 722.627,970.131 706.127,952.131 709,916.5C 713.625,889.254 725.125,865.588 743.5,845.5 Z"/></g>
<g><path style="opacity:0.969" fill="#151515" d="M 676.5,854.5 C 677.873,854.343 679.207,854.51 680.5,855C 684.053,857.944 688.053,860.11 692.5,861.5C 697.688,859.79 702.521,857.456 707,854.5C 711.082,855.159 712.416,857.492 711,861.5C 699.884,873.399 688.217,874.066 676,863.5C 673.88,860.303 674.047,857.303 676.5,854.5 Z"/></g>
<g><path style="opacity:0.254" fill="#7d7d7d" d="M 356.5,954.5 C 356.56,953.957 356.893,953.624 357.5,953.5C 358.829,979.33 358.829,1005 357.5,1030.5C 357.831,1004.99 357.498,979.661 356.5,954.5 Z"/></g>
<g><path style="opacity:0.561" fill="#414141" d="M 194.5,987.5 C 227.996,988.498 261.663,988.832 295.5,988.5C 261.336,989.664 227.002,989.831 192.5,989C 193.044,988.283 193.711,987.783 194.5,987.5 Z"/></g>
<g><path style="opacity:0.561" fill="#404040" d="M 1366.5,987.5 C 1367.76,987.461 1368.76,987.961 1369.5,989C 1335.66,989.831 1302,989.664 1268.5,988.5C 1301.34,988.832 1334,988.498 1366.5,987.5 Z"/></g>
<g><path style="opacity:0.976" fill="#131313" d="M 668.5,1035.5 C 676.019,1035.82 683.352,1035.49 690.5,1034.5C 695.121,1033.91 699.288,1032.24 703,1029.5C 710.105,1017.4 717.605,1005.57 725.5,994C 729.16,991.812 732.826,991.478 736.5,993C 745.761,1000.67 751.594,1010.5 754,1022.5C 755.766,1034.81 757.099,1047.14 758,1059.5C 784.587,1084.32 803.921,1113.98 816,1148.5C 824.144,1171.58 830.644,1195.08 835.5,1219C 833.357,1223.76 830.19,1224.59 826,1221.5C 819.259,1185.61 807.926,1151.28 792,1118.5C 781.685,1098.54 768.019,1081.21 751,1066.5C 750,1064.83 749,1063.17 748,1061.5C 747.578,1052.29 746.911,1042.95 746,1033.5C 744.808,1021.24 740.142,1010.57 732,1001.5C 724.75,1012.33 717.75,1023.33 711,1034.5C 706.747,1039.74 701.247,1042.9 694.5,1044C 685.833,1044.33 677.167,1044.67 668.5,1045C 660.58,1047.25 654.747,1052.08 651,1059.5C 649.033,1073.6 643.2,1085.77 633.5,1096C 629.167,1098.33 624.833,1100.67 620.5,1103C 618.274,1104.62 616.94,1106.79 616.5,1109.5C 617.613,1118.06 621.113,1125.39 627,1131.5C 629.107,1135.38 630.941,1139.38 632.5,1143.5C 644.907,1144.77 657.24,1146.6 669.5,1149C 693.06,1158.59 703.226,1176.09 700,1201.5C 698.789,1208.34 696.956,1215.01 694.5,1221.5C 691.706,1224.1 688.873,1224.1 686,1221.5C 688.118,1212.34 689.618,1203 690.5,1193.5C 690.734,1175.13 682.067,1163.3 664.5,1158C 652.505,1156.03 640.505,1154.37 628.5,1153C 623.941,1148.72 620.774,1143.55 619,1137.5C 611.732,1129.46 607.565,1119.96 606.5,1109C 609.116,1098.38 615.783,1091.72 626.5,1089C 628.667,1086.83 630.833,1084.67 633,1082.5C 637.198,1073.91 640.198,1064.91 642,1055.5C 647.307,1044.01 656.141,1037.34 668.5,1035.5 Z"/></g>
<g><path style="opacity:0.307" fill="#707070" d="M 687.5,1033.5 C 688.167,1033.5 688.833,1033.5 689.5,1033.5C 689.5,1034.17 689.833,1034.5 690.5,1034.5C 683.352,1035.49 676.019,1035.82 668.5,1035.5C 674.833,1034.83 681.167,1034.17 687.5,1033.5 Z"/></g>
<g><path style="opacity:0.967" fill="#161616" d="M 656.5,1075.5 C 659.696,1078.27 663.363,1080.27 667.5,1081.5C 671.61,1080.28 675.277,1078.28 678.5,1075.5C 682.81,1076.63 684.31,1079.3 683,1083.5C 672.228,1094.26 661.895,1093.92 652,1082.5C 651.278,1078.72 652.778,1076.39 656.5,1075.5 Z"/></g>
<g><path style="opacity:0.984" fill="#0e0e0e" d="M 646.5,1363.5 C 662.882,1363.08 679.215,1363.58 695.5,1365C 715.797,1373.96 721.63,1388.79 713,1409.5C 706.846,1418.33 698.346,1423.16 687.5,1424C 678.506,1424.5 669.506,1424.67 660.5,1424.5C 660.5,1438.83 660.5,1453.17 660.5,1467.5C 655.833,1467.5 651.167,1467.5 646.5,1467.5C 646.5,1432.83 646.5,1398.17 646.5,1363.5 Z M 661.5,1374.5 C 671.966,1373.99 682.299,1374.82 692.5,1377C 699.4,1380.45 702.733,1386.12 702.5,1394C 702.856,1402.29 699.19,1407.96 691.5,1411C 681.232,1412.4 670.898,1412.9 660.5,1412.5C 660.187,1399.75 660.52,1387.09 661.5,1374.5 Z"/></g>
<g><path style="opacity:0.986" fill="#131313" d="M 757.5,1362.5 C 775.836,1362.33 794.17,1362.5 812.5,1363C 813.46,1366.73 813.793,1370.56 813.5,1374.5C 799.167,1374.5 784.833,1374.5 770.5,1374.5C 770.5,1385.83 770.5,1397.17 770.5,1408.5C 783.167,1408.5 795.833,1408.5 808.5,1408.5C 808.5,1412.5 808.5,1416.5 808.5,1420.5C 795.833,1420.5 783.167,1420.5 770.5,1420.5C 770.5,1432.17 770.5,1443.83 770.5,1455.5C 784.504,1455.33 798.504,1455.5 812.5,1456C 813.46,1459.73 813.793,1463.56 813.5,1467.5C 794.5,1467.5 775.5,1467.5 756.5,1467.5C 756.174,1432.43 756.507,1397.43 757.5,1362.5 Z"/></g>
<g><path style="opacity:0.977" fill="#0a0a0a" d="M 850.5,1363.5 C 874.167,1363.5 897.833,1363.5 921.5,1363.5C 921.5,1367.17 921.5,1370.83 921.5,1374.5C 912.167,1374.5 902.833,1374.5 893.5,1374.5C 893.5,1405.5 893.5,1436.5 893.5,1467.5C 888.833,1467.5 884.167,1467.5 879.5,1467.5C 879.5,1436.5 879.5,1405.5 879.5,1374.5C 869.833,1374.5 860.167,1374.5 850.5,1374.5C 850.5,1370.83 850.5,1367.17 850.5,1363.5 Z"/></g>
</svg>
